
        <svg xmlns="http://www.w3.org/2000/svg" xmlns:xlink="http://www.w3.org/1999/xlink" version="1.1" width="3266.6666666666665" 
        height="1444.6666666666667" viewBox="0 0 3266.6666666666665 1444.6666666666667">
			
			<g transform="scale(13.333333333333334) translate(10, 10)">
				<defs id="SvgjsDefs1020"></defs><g id="SvgjsG1021" featureKey="symbolContainer" transform="matrix(0.95,0,0,0.95,0,0)" fill="#0e3150"><rect xmlns="http://www.w3.org/2000/svg" width="110" height="93" rx="10" ry="10"></rect></g><g id="SvgjsG1022" featureKey="uHI19F-0" transform="matrix(0.7196428140036939,0,0,0.7196428140036939,15.992499991764342,7.406559454865299)" fill="#f7e9e3"><path xmlns="http://www.w3.org/2000/svg" d="M30.1,42.5l2.7-12.4c0-0.1,0-0.3-0.1-0.4c-0.1-0.1-0.2-0.2-0.4-0.2H10l-1.2-4.4c-0.1-0.4-0.5-0.7-0.9-0.7H2.4  c-0.5,0-1,0.4-1,1c0,0.5,0.4,1,1,1h4.7c0,0,5.6,20.3,5.7,20.4c-0.2,0.4-0.3,0.8-0.3,1.2c0,1.5,1.2,2.7,2.7,2.7s2.7-1.2,2.7-2.7  c0-0.3,0-0.5-0.1-0.8h8.7c-0.1,0.2-0.1,0.5-0.1,0.8c0,1.5,1.2,2.7,2.7,2.7c1.5,0,2.7-1.2,2.7-2.7c0-1.3-1-2.4-2.2-2.7  c-0.1-0.1-15.2-0.1-15.2-0.1l-0.7-2.4h15.9C29.8,42.9,30,42.7,30.1,42.5z M29.1,47c0.6,0,1,0.5,1,1c0,0.6-0.5,1-1,1  c-0.6,0-1-0.5-1-1C28.1,47.4,28.6,47,29.1,47z M15.2,47c0.6,0,1,0.5,1,1c0,0.6-0.5,1-1,1c-0.6,0-1-0.5-1-1  C14.2,47.4,14.7,47,15.2,47z"></path><path xmlns="http://www.w3.org/2000/svg" d="M98.6,72.4c-0.3-1.3-0.3-3.4-0.3-5.8c0-7.7,0.1-19.4-8.8-33.3c0,0,0,0,0,0l-5.4-8.5c-0.9-1.5-2.4-2.5-4.1-2.9  c-1.7-0.4-3.5-0.1-5,0.9c0,0-0.1,0-0.1,0.1c-0.9,0.6-1.6,1.3-2.1,2.2c-0.8-0.6-1.7-1-2.6-1.2c-1.8-0.4-3.6-0.1-5.1,0.9  c-0.1,0-0.1,0.1-0.2,0.1c-1.1,0.8-2,1.8-2.5,3.1c-1.9-0.9-4.2-0.8-6.1,0.3c-0.1,0-0.2,0.1-0.3,0.1c-0.8,0.5-1.5,1.2-2,2l-8.7-13.7  c-1-1.6-2.7-2.8-4.6-3.2c-1.9-0.4-3.8-0.1-5.5,1c0,0,0,0-0.1,0.1c0,0-0.1,0-0.1,0c-1.6,1-2.8,2.7-3.2,4.6c-0.4,1.9-0.1,3.8,1,5.5  l14.5,22.9c-0.7,0.3-1.4,0.8-2.1,1.3c-0.3,0.2-0.7,0.5-1,0.7c0,0,0,0,0,0c-1.7,1.1-2.9,2.8-3.4,4.8s-0.1,4.1,1,5.8l5.1,8  c0.1,0.1,0.2,0.3,0.3,0.4c6.1,8.5,13.7,10.7,18.8,12.2c1.4,0.4,2.6,0.8,3.5,1.2c0.2,0.1,0.3,0.1,0.5,0.1c0,0,0,0,0,0  c2.4,0.5,3.1,1.7,4.4,3.8l0.5,0.7c0.4,0.6,1,0.9,1.7,0.9c0.4,0,0.7-0.1,1.1-0.3c0.9-0.6,1.2-1.8,0.6-2.7l-0.4-0.7  c-1.4-2.3-2.9-4.7-6.9-5.6c0,0,0,0,0,0c-1.1-0.5-2.3-0.8-3.8-1.2c-5.2-1.5-12.2-3.6-17.7-12.3l0,0L45.4,58c-0.5-0.8-0.7-1.8-0.5-2.8  c0.2-1,0.8-1.8,1.6-2.3c0,0,0,0,0,0c0.4-0.3,0.8-0.5,1.1-0.8c0.7-0.5,1.7-1.1,1.9-1.2c0,0,0.1,0.1,0.4,0.4l5.9,9.3  c0.4,0.6,1,0.9,1.7,0.9c0.4,0,0.7-0.1,1.1-0.3c0.9-0.6,1.2-1.8,0.6-2.7l-5.9-9.3c0,0,0,0,0,0c0,0,0,0,0,0l-17-26.7  c-0.5-0.7-0.6-1.6-0.4-2.5c0.2-0.9,0.7-1.6,1.5-2.1c0,0,0,0,0.1-0.1c0,0,0.1,0,0.1,0c0.7-0.5,1.6-0.6,2.5-0.4  c0.9,0.2,1.6,0.7,2.1,1.5l12,18.9l0,0l0,0l5.6,8.8c0.4,0.6,1,0.9,1.7,0.9c0.4,0,0.7-0.1,1.1-0.3c0.9-0.6,1.2-1.8,0.6-2.7l-5.6-8.8  c-0.8-1.3-0.4-3,0.9-3.9c0,0,0,0,0,0c1.3-0.8,3-0.4,3.9,0.9l5.6,8.8c0.4,0.6,1,0.9,1.7,0.9c0.4,0,0.7-0.1,1.1-0.3  c0.9-0.6,1.2-1.8,0.6-2.7L66.5,32c0,0,0,0,0,0c-0.4-0.6-0.5-1.4-0.4-2.1c0.2-0.7,0.6-1.4,1.2-1.8c0,0,0,0,0,0  c0.6-0.4,1.4-0.5,2.1-0.4c0.7,0.2,1.4,0.6,1.8,1.2l1.9,2.9c0,0,0,0,0,0c0,0,0,0,0,0l3.8,5.9c0.4,0.6,1,0.9,1.7,0.9  c0.4,0,0.7-0.1,1.1-0.3c0.9-0.6,1.2-1.8,0.6-2.7l-3.8-5.9l0,0c-0.4-0.6-0.5-1.3-0.3-2c0.2-0.7,0.6-1.3,1.1-1.6c0,0,0,0,0,0  c0.6-0.4,1.3-0.5,2-0.3c0.7,0.2,1.3,0.6,1.6,1.1l5.4,8.5c8.3,13,8.2,24,8.2,31.2c0,2.8,0,5,0.4,6.7c0.2,0.9,1,1.5,1.9,1.5  c0.2,0,0.3,0,0.5-0.1C98.2,74.5,98.9,73.4,98.6,72.4z"></path></g><g id="SvgjsG1023" featureKey="8FbbNb-0" transform="matrix(1.4518001293718377,0,0,1.4518001293718377,123.0255519763542,21.915215202520095)" fill="#0e3150"><path d="M6.12 10.28 c1.3733 0 2.36 0.58666 2.96 1.76 c0.30666 -0.56 0.72666 -0.99334 1.26 -1.3 s1.1133 -0.46 1.74 -0.46 c2.3866 0 3.5866 1.3733 3.6 4.12 l0 5.6 l-1.8 0 l0 -5.38 c0 -0.93334 -0.16666 -1.61 -0.5 -2.03 s-0.84668 -0.63 -1.54 -0.63 c-0.81334 0 -1.42 0.24666 -1.82 0.74 s-0.6 1.1733 -0.6 2.04 l0 5.26 l-1.8 0 l0 -5.1 c0 -1.12 -0.16 -1.89 -0.48 -2.31 s-0.82666 -0.63 -1.52 -0.63 c-0.74666 0 -1.3433 0.28666 -1.79 0.86 s-0.67 1.3 -0.67 2.18 l0 5 l-1.8 0 l0 -9.48 l1.68 0 l0 1.48 l0.04 0 c0.2 -0.46666 0.59666 -0.87 1.19 -1.21 s1.21 -0.51 1.85 -0.51 z M19.34 10.52 l2.82 7.4 l0.04 0 l2.68 -7.4 l1.94 0 l-4.48 11.48 c-0.41334 1.1067 -0.86668 1.85 -1.36 2.23 s-1.1267 0.57 -1.9 0.57 c-0.65334 0 -1.1867 -0.08666 -1.6 -0.26 l0.22 -1.62 c0.37334 0.13334 0.73334 0.2 1.08 0.2 c0.56 0 0.96334 -0.13666 1.21 -0.41 s0.46332 -0.66334 0.64998 -1.17 l0.56 -1.48 l-3.94 -9.54 l2.08 0 z M31.599999999999998 10.28 c0.72 0 1.3633 0.13338 1.93 0.40004 s1.0033 0.65332 1.31 1.16 l-1.4 1.06 c-0.53334 -0.62666 -1.18 -0.94 -1.94 -0.94 c-0.45334 0 -0.83 0.1 -1.13 0.3 s-0.45 0.45334 -0.45 0.76 c0 0.66666 0.62 1.12 1.86 1.36 c1.2133 0.22666 2.07 0.56 2.57 1 s0.75 1.0667 0.75 1.88 c0 0.92 -0.35 1.6433 -1.05 2.17 s-1.6367 0.79666 -2.81 0.81 c-0.88 0 -1.6033 -0.13666 -2.17 -0.41 s-1.0567 -0.69668 -1.47 -1.27 l1.36 -1.12 c0.72 0.74666 1.4867 1.12 2.3 1.12 c0.53334 0 0.98668 -0.10666 1.36 -0.32 s0.56 -0.50668 0.56 -0.88002 c0 -0.65334 -0.6 -1.1067 -1.8 -1.36 c-1.3333 -0.26666 -2.23 -0.62332 -2.69 -1.07 s-0.69 -1.0233 -0.69 -1.73 c0 -0.88 0.34 -1.5833 1.02 -2.11 s1.54 -0.79666 2.58 -0.81 z M39.08 4.880000000000001 l0.000019531 7.1 l0.04 0 c0.25334 -0.53334 0.66334 -0.95 1.23 -1.25 s1.1967 -0.45 1.89 -0.45 c1.0533 0 1.89 0.32 2.51 0.96 s0.93 1.5 0.93 2.58 l0 6.18 l-1.8 0 l0 -5.66 c0 -0.73334 -0.19 -1.3133 -0.57 -1.74 s-0.91 -0.64 -1.59 -0.64 c-0.84 0 -1.4867 0.27334 -1.94 0.82 s-0.68668 1.3 -0.70002 2.26 l0 4.96 l-1.8 0 l0 -15.12 l1.8 0 z M52.980000000000004 10.28 c1.4 0 2.5866 0.48338 3.56 1.45 s1.4667 2.1434 1.48 3.53 c0 1.4 -0.48666 2.5734 -1.46 3.52 s-2.1666 1.4333 -3.58 1.46 c-1.3867 0 -2.5666 -0.48 -3.54 -1.44 s-1.4733 -2.14 -1.5 -3.54 c0 -1.3733 0.48334 -2.54 1.45 -3.5 s2.1634 -1.4533 3.59 -1.48 z M49.86000000000001 15.26 c0 0.97334 0.28664 1.7633 0.85998 2.37 s1.3267 0.91666 2.26 0.93 c0.94666 0 1.7 -0.30334 2.26 -0.91 s0.84666 -1.4033 0.86 -2.39 c0 -0.97334 -0.28 -1.7633 -0.84 -2.37 s-1.3267 -0.91666 -2.3 -0.93 c-0.94666 0 -1.7 0.31334 -2.26 0.94 s-0.84 1.4133 -0.84 2.36 z M65.44000000000001 10.28 c1.4 0 2.5434 0.45998 3.43 1.38 s1.3433 2.12 1.37 3.6 c0 1.48 -0.45334 2.6766 -1.36 3.59 s-2.06 1.3767 -3.46 1.39 c-0.69334 0 -1.34 -0.14666 -1.94 -0.44 s-1.0533 -0.68 -1.36 -1.16 l-0.04 0 l0 7 l-1.8 0 l0 -15.12 l1.8 0 l0 1.36 l0.04 0 c0.36 -0.50666 0.83334 -0.9 1.42 -1.18 s1.22 -0.42 1.9 -0.42 z M62.08000000000001 15.26 c0 0.98666 0.28998 1.7833 0.86998 2.39 s1.33 0.91 2.25 0.91 c0.96 0 1.7167 -0.30334 2.27 -0.91 s0.83668 -1.4033 0.85002 -2.39 c0 -0.98666 -0.28334 -1.78 -0.85 -2.38 s-1.33 -0.90666 -2.29 -0.92 c-0.94666 0 -1.7 0.31 -2.26 0.93 s-0.84 1.41 -0.84 2.37 z"></path></g>
			</g>
		</svg>
	